<?xml version="1.0"?>
<svg xmlns="http://www.w3.org/2000/svg" viewBox="0 0 50 50">
    <path d="M25,2C12.318,2,2,12.318,2,25c0,12.683,10.318,23,23,23c12.683,0,23-10.317,23-23C48,12.318,37.683,2,25,2z M33.707,21.707 C33.512,21.902,33.256,22,33,22s-0.512-0.098-0.707-0.293L26,15.414V37c0,0.553-0.448,1-1,1s-1-0.447-1-1V15.414l-6.293,6.293 c-0.391,0.391-1.023,0.391-1.414,0s-0.391-1.023,0-1.414l8-8c0.092-0.092,0.203-0.165,0.325-0.216c0.245-0.101,0.52-0.101,0.764,0 c0.122,0.051,0.233,0.124,0.325,0.216l8,8C34.098,20.684,34.098,21.316,33.707,21.707z"/>
</svg>
